# File generated by ImageToStl.com - Free Image and 3D model conversion tools

mtllib augboltfix.mtl

o obj1
v -0.11603024 -0.03067763 -0.08460418
v -0.24849924 -0.10048915 -0.08563075
v -0.24849924 -0.03067763 -0.08460418
v -0.11603024 -0.10048915 -0.08563075
v -0.11603024 -0.03067763 -0.08460418
v -0.21798524 -0.03167569 -0.01678485
v -0.19789323 -0.03197076 0.00330433
v -0.24849924 -0.03067763 -0.08460418
v -0.24849924 -0.03145906 -0.0315124
v -0.23377024 -0.03167569 -0.01678485
v -0.11603024 -0.03317656 0.08520277
v -0.19789323 -0.03317656 0.08520277
v -0.13528123 -0.03345948 0.10445207
v -0.17864224 -0.03345948 0.10445207
v -0.11603024 -0.10048915 -0.08563075
v -0.11603024 -0.10298786 0.08417521
v -0.19789323 -0.10178229 0.00227775
v -0.19789323 -0.10298786 0.08417521
v -0.17864224 -0.10327078 0.10342452
v -0.13528123 -0.10327078 0.10342452
v -0.21798524 -0.10148722 -0.01781143
v -0.24849924 -0.10048915 -0.08563075
v -0.24849924 -0.10127036 -0.03253995
v -0.23377024 -0.10148722 -0.01781143
v -0.24849924 -0.10048915 -0.08563075
v -0.24849924 -0.03145906 -0.0315124
v -0.24849924 -0.03067763 -0.08460418
v -0.24849924 -0.10127036 -0.03253995
v -0.23377024 -0.03167569 -0.01678485
v -0.23377024 -0.10148722 -0.01781143
v -0.21798524 -0.10148722 -0.01781143
v -0.21798524 -0.03167569 -0.01678485
v -0.19789323 -0.10178229 0.00227775
v -0.19789323 -0.03197076 0.00330433
v -0.19789323 -0.10298786 0.08417521
v -0.19789323 -0.03317656 0.08520277
v -0.17864224 -0.03345948 0.10445207
v -0.17864224 -0.10327078 0.10342452
v -0.13528123 -0.10327078 0.10342452
v -0.13528123 -0.03345948 0.10445207
v -0.11603024 -0.10298786 0.08417521
v -0.11603024 -0.03317656 0.08520277
v -0.11603024 -0.03067763 -0.08460418
v -0.11603024 -0.10048915 -0.08563075
vn 0 0.0147 -0.99989
vn 0 0.0147 -0.99989
vn 0 0.0147 -0.99989
vn 0 0.0147 -0.99989
vn 0 0.99989 0.01471
vn -0 0.99989 0.01471
vn -0 0.99989 0.01471
vn -0 0.99989 0.01472
vn -0 0.99989 0.01472
vn 0 0.99989 0.01471
vn 0 0.99989 0.01471
vn 0 0.99989 0.01471
vn 0 0.99989 0.0147
vn 0 0.99989 0.0147
vn -0 -0.99989 -0.01471
vn -0 -0.99989 -0.01471
vn 0 -0.99989 -0.01471
vn 0 -0.99989 -0.01471
vn 0 -0.99989 -0.0147
vn 0 -0.99989 -0.0147
vn 0 -0.99989 -0.01471
vn -0 -0.99989 -0.01471
vn -0 -0.99989 -0.01471
vn 0 -0.99989 -0.01472
vn -1 -0 0
vn -0.92388 -0.00563 0.38263
vn -1 -0 0
vn -0.92389 -0.00563 0.38262
vn -0.38269 -0.01359 0.92378
vn -0.3827 -0.01358 0.92377
vn -0.38268 -0.01358 0.92378
vn -0.38267 -0.01358 0.92379
vn -0.92388 -0.00563 0.38264
vn -0.92388 -0.00563 0.38264
vn -0.92389 -0.00563 0.38262
vn -0.92388 -0.00563 0.38264
vn -0.38268 -0.0136 0.92378
vn -0.38269 -0.0136 0.92378
vn 0.38269 -0.0136 0.92378
vn 0.38268 -0.0136 0.92378
vn 0.92388 -0.00563 0.38263
vn 0.92388 -0.00563 0.38264
vn 1 -0 0
vn 1 -0 0
vt 0 0
usemtl mat0
f 1/1/1 2/1/2 3/1/3
f 2/1/2 1/1/1 4/1/4
f 5/1/5 6/1/6 7/1/7
f 6/1/6 5/1/5 8/1/8
f 9/1/9 6/1/6 8/1/8
f 6/1/6 9/1/9 10/1/10
f 7/1/7 11/1/11 5/1/5
f 12/1/12 11/1/11 7/1/7
f 11/1/11 12/1/12 13/1/13
f 13/1/13 12/1/12 14/1/14
f 15/1/15 16/1/16 17/1/17
f 16/1/16 18/1/18 17/1/17
f 18/1/18 16/1/16 19/1/19
f 19/1/19 16/1/16 20/1/20
f 21/1/21 15/1/15 17/1/17
f 21/1/21 22/1/22 15/1/15
f 22/1/22 21/1/21 23/1/23
f 23/1/23 21/1/21 24/1/24
f 25/1/25 26/1/26 27/1/27
f 26/1/26 25/1/25 28/1/28
f 28/1/28 29/1/29 26/1/26
f 29/1/29 28/1/28 30/1/30
f 29/1/29 30/1/30 31/1/31
f 31/1/31 32/1/32 29/1/29
f 33/1/33 32/1/32 31/1/31
f 32/1/32 33/1/33 34/1/34
f 35/1/35 34/1/34 33/1/33
f 34/1/34 35/1/35 36/1/36
f 35/1/35 37/1/37 36/1/36
f 37/1/37 35/1/35 38/1/38
f 38/1/38 39/1/39 37/1/37
f 39/1/39 40/1/40 37/1/37
f 41/1/41 40/1/40 39/1/39
f 41/1/41 42/1/42 40/1/40
f 43/1/43 42/1/42 41/1/41
f 41/1/41 44/1/44 43/1/43
# Vertices: 44, normals: 44, texture coordinates: 1, faces: 36

