# Blender 5.2.0 LTS
# www.blender.org
mtllib boneclaw prob perfect mag.mtl
o maybe_correct_sized_bc_mag
v 0.100871 0.165833 -0.089432
v 0.100871 0.165833 0.089140
v 0.122782 0.043593 -0.089432
v 0.122782 0.043593 0.089140
v 0.125325 -0.060428 -0.089432
v 0.125325 -0.060428 0.089140
v 0.109182 -0.174252 -0.089432
v 0.109182 -0.174252 0.089140
v 0.074011 -0.279079 -0.089432
v 0.074011 -0.279079 0.089140
v 0.029269 -0.384139 -0.089432
v 0.029269 -0.384139 0.089140
v 0.049565 -0.440300 0.107136
v 0.049565 -0.440300 -0.106447
v 0.041495 -0.497270 0.107136
v 0.041495 -0.497270 -0.106447
v 0.049565 -0.440300 -0.106447
v 0.049565 -0.440300 0.107136
v 0.100871 0.165833 -0.089432
v -0.249826 0.204572 -0.089432
v -0.249826 0.204572 0.089140
v 0.100871 0.165833 0.089140
v -0.321660 -0.335944 0.089140
v -0.321660 -0.335944 -0.089432
v -0.367786 -0.384381 -0.106447
v -0.367786 -0.384381 0.107136
v 0.041495 -0.497270 0.107136
v -0.367786 -0.384381 0.107136
v -0.375743 -0.441232 0.107136
v 0.049565 -0.440300 0.107136
v 0.100871 0.165833 0.089140
v -0.228142 0.091672 0.089140
v 0.122782 0.043593 0.089140
v -0.249826 0.204572 0.089140
v -0.215916 -0.021457 0.089140
v 0.125325 -0.060428 0.089140
v 0.109182 -0.174252 0.089140
v -0.232289 -0.125825 0.089140
v 0.074011 -0.279079 0.089140
v -0.267460 -0.230652 0.089140
v 0.029269 -0.384139 0.089140
v -0.321660 -0.335944 0.089140
v 0.049565 -0.440300 0.107136
v -0.367786 -0.384381 0.107136
v -0.375743 -0.441232 -0.106447
v -0.367786 -0.384381 0.107136
v -0.367786 -0.384381 -0.106447
v -0.375743 -0.441232 0.107136
v -0.249826 0.204572 -0.089432
v -0.228142 0.091672 -0.089432
v -0.228142 0.091672 0.089140
v -0.249826 0.204572 0.089140
v -0.215916 -0.021457 0.089140
v -0.215916 -0.021457 -0.089432
v -0.232289 -0.125825 0.089140
v -0.232289 -0.125825 -0.089432
v -0.267460 -0.230652 0.089140
v -0.267460 -0.230652 -0.089432
v -0.321660 -0.335944 0.089140
v -0.321660 -0.335944 -0.089432
v -0.375743 -0.441232 -0.106447
v 0.041495 -0.497270 -0.106447
v 0.041495 -0.497270 0.107136
v -0.375743 -0.441232 0.107136
v 0.041495 -0.497270 -0.106447
v -0.367786 -0.384381 -0.106447
v 0.049565 -0.440300 -0.106447
v -0.375743 -0.441232 -0.106447
v 0.100871 0.165833 -0.089432
v -0.228142 0.091672 -0.089432
v -0.249826 0.204572 -0.089432
v 0.122782 0.043593 -0.089432
v -0.215916 -0.021457 -0.089432
v 0.125325 -0.060428 -0.089432
v 0.109182 -0.174252 -0.089432
v -0.232289 -0.125825 -0.089432
v 0.074011 -0.279079 -0.089432
v -0.267460 -0.230652 -0.089432
v 0.029269 -0.384139 -0.089432
v -0.321660 -0.335944 -0.089432
v 0.049565 -0.440300 -0.106447
v -0.367786 -0.384381 -0.106447
v 0.054163 0.145882 -0.095142
v 0.054163 0.145882 0.095773
v 0.075387 0.051781 -0.095142
v 0.075387 0.051781 0.095773
v 0.078158 -0.061581 -0.095142
v 0.078158 -0.061581 0.095773
v 0.071240 -0.165717 -0.095142
v 0.071240 -0.165717 0.095773
v 0.035955 -0.270547 -0.095142
v 0.035955 -0.270547 0.095773
v -0.009250 -0.356694 -0.095142
v -0.009250 -0.356694 0.095773
v -0.059657 0.161909 0.095773
v -0.038206 0.058467 -0.095142
v -0.059657 0.161909 -0.095142
v -0.038206 0.058467 0.095773
v -0.035666 -0.045439 -0.095142
v -0.035666 -0.045439 0.095773
v -0.042583 -0.149575 -0.095142
v -0.042583 -0.149575 0.095773
v -0.077869 -0.254405 -0.095142
v -0.077869 -0.254405 0.095773
v -0.123074 -0.340553 -0.095142
v -0.123074 -0.340553 0.095773
v -0.173250 0.168595 -0.095142
v -0.173250 0.168595 0.095773
v -0.152029 0.074608 -0.095142
v -0.152029 0.074608 0.095773
v -0.140149 -0.029069 -0.095142
v -0.140149 -0.029068 0.095773
v -0.156406 -0.133432 -0.095142
v -0.156406 -0.133432 0.095773
v -0.191693 -0.238262 -0.095142
v -0.191693 -0.238262 0.095773
v -0.236898 -0.324410 -0.095142
v -0.236898 -0.324410 0.095773
v -0.088027 0.161216 -0.095142
v -0.088027 0.161216 0.095773
v -0.059657 0.161909 -0.095142
v -0.059657 0.161909 0.095773
v 0.025794 0.145190 -0.095142
v 0.025794 0.145190 0.095773
v 0.054163 0.145882 -0.095142
v 0.054163 0.145882 0.095773
v -0.201851 0.177358 -0.095142
v -0.201851 0.177358 0.095773
v -0.173250 0.168595 -0.095142
v -0.173250 0.168595 0.095773
v -0.066805 0.067230 0.095773
v -0.059657 0.161909 0.095773
v -0.088027 0.161216 0.095773
v -0.038206 0.058467 0.095773
v -0.064266 -0.036676 0.095773
v -0.035666 -0.045439 0.095773
v -0.070952 -0.150269 0.095773
v -0.042583 -0.149575 0.095773
v -0.077869 -0.254405 0.095773
v -0.106470 -0.245642 0.095773
v -0.123074 -0.340553 0.095773
v -0.151328 -0.341243 0.095773
v 0.047018 0.051087 0.095773
v 0.054163 0.145882 0.095773
v 0.025794 0.145190 0.095773
v 0.075387 0.051781 0.095773
v 0.049557 -0.052818 0.095773
v 0.078158 -0.061581 0.095773
v 0.033184 -0.157185 0.095773
v 0.071240 -0.165717 0.095773
v 0.035955 -0.270547 0.095773
v 0.007355 -0.261783 0.095773
v -0.009250 -0.356694 0.095773
v -0.037735 -0.347928 0.095773
v -0.180630 0.083371 0.095773
v -0.173250 0.168595 0.095773
v -0.201851 0.177358 0.095773
v -0.152029 0.074608 0.095773
v -0.177859 -0.029990 0.095773
v -0.140149 -0.029068 0.095773
v -0.184776 -0.134126 0.095773
v -0.156406 -0.133432 0.095773
v -0.191693 -0.238262 0.095773
v -0.220293 -0.229499 0.095773
v -0.236898 -0.324410 0.095773
v -0.265151 -0.325100 0.095773
v -0.180630 0.083371 -0.095142
v -0.180630 0.083371 0.095773
v -0.201851 0.177358 -0.095142
v -0.201851 0.177358 0.095773
v -0.177859 -0.029990 0.095773
v -0.177859 -0.029990 -0.095142
v -0.184776 -0.134126 0.095773
v -0.184776 -0.134126 -0.095142
v -0.220293 -0.229499 0.095773
v -0.220293 -0.229499 -0.095142
v -0.265151 -0.325100 0.095773
v -0.265151 -0.325100 -0.095142
v -0.066805 0.067230 -0.095142
v -0.066805 0.067230 0.095773
v -0.088027 0.161216 -0.095142
v -0.088027 0.161216 0.095773
v -0.064266 -0.036676 0.095773
v -0.064266 -0.036676 -0.095142
v -0.070952 -0.150269 0.095773
v -0.070952 -0.150269 -0.095142
v -0.106470 -0.245642 0.095773
v -0.106470 -0.245642 -0.095142
v -0.151328 -0.341243 0.095773
v -0.151328 -0.341243 -0.095142
v 0.047018 0.051087 -0.095142
v 0.047018 0.051087 0.095773
v 0.025794 0.145190 -0.095142
v 0.025794 0.145190 0.095773
v 0.049557 -0.052818 0.095773
v 0.049557 -0.052818 -0.095142
v 0.033184 -0.157185 0.095773
v 0.033184 -0.157185 -0.095142
v 0.007355 -0.261783 0.095773
v 0.007355 -0.261784 -0.095142
v -0.037735 -0.347928 0.095773
v -0.037735 -0.347928 -0.095142
v -0.123074 -0.340553 -0.095142
v -0.123074 -0.340553 0.095773
v -0.151328 -0.341243 -0.095142
v -0.151328 -0.341243 0.095773
v -0.009250 -0.356694 -0.095142
v -0.009250 -0.356694 0.095773
v -0.037735 -0.347928 -0.095142
v -0.037735 -0.347928 0.095773
v -0.236898 -0.324410 -0.095142
v -0.236898 -0.324410 0.095773
v -0.265151 -0.325100 -0.095142
v -0.265151 -0.325100 0.095773
v -0.059657 0.161909 -0.095142
v -0.066805 0.067230 -0.095142
v -0.088027 0.161216 -0.095142
v -0.038206 0.058467 -0.095142
v -0.064266 -0.036676 -0.095142
v -0.035666 -0.045439 -0.095142
v -0.070952 -0.150269 -0.095142
v -0.042583 -0.149575 -0.095142
v -0.077869 -0.254405 -0.095142
v -0.106470 -0.245642 -0.095142
v -0.123074 -0.340553 -0.095142
v -0.151328 -0.341243 -0.095142
v 0.054163 0.145882 -0.095142
v 0.047018 0.051087 -0.095142
v 0.025794 0.145190 -0.095142
v 0.075387 0.051781 -0.095142
v 0.049557 -0.052818 -0.095142
v 0.078158 -0.061581 -0.095142
v 0.033184 -0.157185 -0.095142
v 0.071240 -0.165717 -0.095142
v 0.035955 -0.270547 -0.095142
v 0.007355 -0.261784 -0.095142
v -0.009250 -0.356694 -0.095142
v -0.037735 -0.347928 -0.095142
v -0.173250 0.168595 -0.095142
v -0.180630 0.083371 -0.095142
v -0.201851 0.177358 -0.095142
v -0.152029 0.074608 -0.095142
v -0.177859 -0.029990 -0.095142
v -0.140149 -0.029069 -0.095142
v -0.184776 -0.134126 -0.095142
v -0.156406 -0.133432 -0.095142
v -0.191693 -0.238262 -0.095142
v -0.220293 -0.229499 -0.095142
v -0.236898 -0.324410 -0.095142
v -0.265151 -0.325100 -0.095142
vn 0.9849 0.1733 -0.0000
vn 0.9849 0.1732 -0.0000
vn 0.9929 0.1191 -0.0000
vn 0.9995 -0.0306 -0.0000
vn 0.9995 -0.0307 -0.0000
vn 0.9736 -0.2281 -0.0000
vn 0.9289 -0.3704 -0.0000
vn 1.0000 0.0008 -0.0000
vn 0.9292 0.3696 -0.0000
vn 0.9910 -0.1338 -0.0000
vn 0.1261 0.9920 -0.0000
vn -0.6806 0.7327 -0.0000
vn -0.7861 0.6181 -0.0000
vn -0.0000 -0.0000 1.0000
vn 0.0265 0.2058 0.9782
vn 0.0199 0.1496 0.9885
vn 0.0390 0.3310 0.9428
vn 0.0391 0.3310 0.9428
vn -0.9910 0.1339 -0.0000
vn -0.9910 0.1338 -0.0000
vn -0.9849 -0.1732 -0.0000
vn -0.9929 -0.1191 -0.0000
vn -0.9995 0.0306 -0.0000
vn -0.9736 0.2281 -0.0000
vn -0.9289 0.3704 -0.0000
vn -0.7862 0.6179 -0.0000
vn -0.1261 -0.9920 -0.0000
vn -0.0000 -0.0000 -1.0000
vn 0.0265 0.2058 -0.9782
vn 0.0199 0.1496 -0.9885
vn 0.0391 0.3310 -0.9428
vn 0.9818 0.1898 -0.0000
vn 0.9919 0.1269 -0.0000
vn 0.9737 -0.2280 -0.0000
vn 0.9250 -0.3800 -0.0000
vn 0.9005 -0.4348 -0.0000
vn 0.9818 0.1897 -0.0000
vn 0.1260 0.9920 -0.0000
vn 0.1260 0.9920 0.0001
vn 0.1261 0.9920 -0.0001
vn -0.9919 -0.1269 -0.0000
vn -0.9818 -0.1897 -0.0000
vn -0.9250 0.3800 -0.0000
vn -0.9005 0.4348 -0.0000
vn -0.9006 0.4347 -0.0000
vn -0.9737 0.2280 -0.0000
vn -0.1249 -0.9922 -0.0000
vn -0.1251 -0.9921 -0.0000
vt 48.094501 -48.679401
vt 47.905499 -48.679401
vt 48.094501 -48.799801
vt 47.905499 -48.799801
vt 48.094501 -48.918098
vt 47.905499 -48.918098
vt 48.094501 -49.032902
vt 47.905499 -49.032902
vt 48.094501 -49.144100
vt 47.905499 -49.144100
vt 48.094501 -49.253300
vt 47.905499 -49.253300
vt 47.886700 -49.311001
vt 48.113300 -49.311001
vt 47.886700 -49.377300
vt 48.113300 -49.377300
vt 47.753502 -49.094501
vt 48.118698 -49.094501
vt 48.118698 -48.905499
vt 47.753502 -48.905499
vt 48.259701 -49.113300
vt 48.207699 -48.905499
vt 48.207699 -49.094501
vt 48.259701 -48.886700
vt 48.168201 -49.377300
vt 47.740299 -49.242901
vt 47.730000 -49.309299
vt 48.178501 -49.311001
vt 48.246498 -48.679401
vt 47.899502 -48.743099
vt 48.264702 -48.799801
vt 47.881302 -48.622700
vt 47.904800 -48.861500
vt 48.270000 -48.918098
vt 48.252201 -49.032902
vt 47.887001 -48.976200
vt 48.211300 -49.144100
vt 47.846100 -49.087502
vt 48.157398 -49.253300
vt 47.792301 -49.196701
vt 47.886700 -49.309299
vt 48.113300 -49.242901
vt 47.886700 -49.242901
vt 48.113300 -49.309299
vt 47.905499 -48.622700
vt 47.905499 -48.743099
vt 48.094501 -48.743099
vt 48.094501 -48.622700
vt 48.094501 -48.861500
vt 47.905499 -48.861500
vt 48.094501 -48.976200
vt 47.905499 -48.976200
vt 48.094501 -49.087502
vt 47.905499 -49.087502
vt 48.094501 -49.196701
vt 47.905499 -49.196701
vt 47.730000 -49.113300
vt 48.168201 -49.113300
vt 48.168201 -48.886700
vt 47.730000 -48.886700
vt 47.831799 -49.377300
vt 48.259701 -49.242901
vt 47.821499 -49.311001
vt 48.270000 -49.309299
vt 47.753502 -48.679401
vt 48.100498 -48.743099
vt 48.118698 -48.622700
vt 47.735298 -48.799801
vt 48.095200 -48.861500
vt 47.730000 -48.918098
vt 47.747799 -49.032902
vt 48.112999 -48.976200
vt 47.788700 -49.144100
vt 48.153900 -49.087502
vt 47.842602 -49.253300
vt 48.207699 -49.196701
vt 28.100800 -30.757700
vt 27.899200 -30.757700
vt 28.100800 -30.859900
vt 27.899200 -30.859900
vt 28.100800 -30.974001
vt 27.899200 -30.974001
vt 28.100800 -31.084801
vt 27.899200 -31.084801
vt 28.100800 -31.192101
vt 27.899200 -31.192101
vt 28.100800 -31.284401
vt 27.899200 -31.284401
vt 27.899200 -30.739100
vt 28.100800 -30.841400
vt 28.100800 -30.739100
vt 27.899200 -30.841400
vt 28.100800 -30.955500
vt 27.899200 -30.955500
vt 28.100800 -31.066200
vt 27.899200 -31.066200
vt 28.100800 -31.173599
vt 27.899200 -31.173599
vt 28.100800 -31.265900
vt 27.899200 -31.265900
vt 28.100800 -30.720600
vt 27.899200 -30.720600
vt 28.100800 -30.822800
vt 27.899200 -30.822800
vt 28.100800 -30.937000
vt 27.899200 -30.937000
vt 28.100800 -31.047701
vt 27.899200 -31.047701
vt 28.100800 -31.155001
vt 27.899200 -31.155001
vt 28.100800 -31.247400
vt 27.899200 -31.247400
vt 27.986099 -31.100800
vt 27.986099 -30.899200
vt 27.953600 -31.100800
vt 27.953600 -30.899200
vt 27.866600 -31.100800
vt 27.866600 -30.899200
vt 27.834101 -31.100800
vt 27.834101 -30.899200
vt 28.105499 -31.100800
vt 28.105499 -30.899200
vt 28.073000 -31.100800
vt 28.073000 -30.899200
vt 28.030701 -30.836300
vt 28.046400 -30.739100
vt 28.013901 -30.734100
vt 28.063200 -30.841400
vt 28.035299 -30.950399
vt 28.067801 -30.955500
vt 28.018101 -31.061199
vt 28.050600 -31.066200
vt 28.011700 -31.173599
vt 27.979200 -31.168501
vt 27.964701 -31.265900
vt 27.932199 -31.260900
vt 28.150200 -30.854900
vt 28.165899 -30.757700
vt 28.133400 -30.752600
vt 28.182600 -30.859900
vt 28.154800 -30.969000
vt 28.187201 -30.974001
vt 28.137600 -31.079700
vt 28.170099 -31.084801
vt 28.131100 -31.192101
vt 28.098600 -31.187099
vt 28.084101 -31.284401
vt 28.051600 -31.279400
vt 27.911301 -30.817801
vt 27.927000 -30.720600
vt 27.894501 -30.715599
vt 27.943800 -30.822800
vt 27.915899 -30.931900
vt 27.948400 -30.937000
vt 27.898701 -31.042601
vt 27.931200 -31.047701
vt 27.892200 -31.155001
vt 27.859800 -31.150000
vt 27.845200 -31.247400
vt 27.812799 -31.242300
vt 27.899200 -30.817801
vt 28.100800 -30.817801
vt 27.899200 -30.715599
vt 28.100800 -30.715599
vt 28.100800 -30.931900
vt 27.899200 -30.931900
vt 28.100800 -31.042601
vt 27.899200 -31.042601
vt 28.100800 -31.150000
vt 27.899200 -31.150000
vt 28.100800 -31.242300
vt 27.899200 -31.242300
vt 27.899200 -30.836300
vt 28.100800 -30.836300
vt 27.899200 -30.734100
vt 28.100800 -30.734100
vt 28.100800 -30.950399
vt 27.899200 -30.950399
vt 28.100800 -31.061199
vt 27.899200 -31.061199
vt 28.100800 -31.168501
vt 27.899200 -31.168501
vt 28.100800 -31.260900
vt 27.899200 -31.260900
vt 27.899200 -30.854900
vt 28.100800 -30.854900
vt 27.899200 -30.752600
vt 28.100800 -30.752600
vt 28.100800 -30.969000
vt 27.899200 -30.969000
vt 28.100800 -31.079700
vt 27.899200 -31.079700
vt 28.100800 -31.187099
vt 27.899200 -31.187099
vt 28.100800 -31.279400
vt 27.899200 -31.279400
vt 27.964701 -31.100800
vt 27.964701 -30.899200
vt 27.932199 -31.100800
vt 27.932199 -30.899200
vt 28.084101 -31.100800
vt 28.084101 -30.899200
vt 28.051600 -31.100800
vt 28.051600 -30.899200
vt 27.845200 -31.100800
vt 27.845200 -30.899200
vt 27.812799 -31.100800
vt 27.812799 -30.899200
vt 27.953600 -30.739100
vt 27.969299 -30.836300
vt 27.986099 -30.734100
vt 27.936800 -30.841400
vt 27.964701 -30.950399
vt 27.932199 -30.955500
vt 27.981899 -31.061199
vt 27.949400 -31.066200
vt 27.988300 -31.173599
vt 28.020800 -31.168501
vt 28.035299 -31.265900
vt 28.067801 -31.260900
vt 27.834101 -30.757700
vt 27.849800 -30.854900
vt 27.866600 -30.752600
vt 27.817400 -30.859900
vt 27.845200 -30.969000
vt 27.812799 -30.974001
vt 27.862400 -31.079700
vt 27.829901 -31.084801
vt 27.868900 -31.192101
vt 27.901400 -31.187099
vt 27.915899 -31.284401
vt 27.948400 -31.279400
vt 28.073000 -30.720600
vt 28.088699 -30.817801
vt 28.105499 -30.715599
vt 28.056200 -30.822800
vt 28.084101 -30.931900
vt 28.051600 -30.937000
vt 28.101299 -31.042601
vt 28.068800 -31.047701
vt 28.107800 -31.155001
vt 28.140200 -31.150000
vt 28.154800 -31.247400
vt 28.187201 -31.242300
s 1
usemtl Meshpart1Mtl.001
f 1/1/1 2/2/2 3/3/3
f 3/3/3 2/2/2 4/4/3
f 4/4/3 5/5/4 3/3/3
f 5/5/4 4/4/3 6/6/5
f 5/5/4 6/6/5 7/7/6
f 7/7/6 6/6/5 8/8/6
f 8/8/6 9/9/7 7/7/6
f 9/9/7 8/8/6 10/10/7
f 10/10/7 11/11/8 9/9/7
f 11/11/8 10/10/7 12/12/8
f 13/13/9 11/11/8 12/12/8
f 13/13/9 14/14/9 11/11/8
f 15/15/10 16/16/10 17/14/10
f 17/14/10 18/13/10 15/15/10
f 19/17/11 20/18/11 21/19/11
f 19/17/11 21/19/11 22/20/11
f 25/21/12 23/22/13 24/23/13
f 25/21/12 26/24/12 23/22/13
f 27/25/14 28/26/14 29/27/14
f 28/26/14 27/25/14 30/28/14
f 31/29/14 32/30/14 33/31/14
f 32/30/14 31/29/14 34/32/14
f 35/33/14 33/31/14 32/30/14
f 33/31/14 35/33/14 36/34/14
f 36/34/14 35/33/14 37/35/14
f 38/36/14 37/35/14 35/33/14
f 37/35/14 38/36/14 39/37/14
f 40/38/14 39/37/14 38/36/14
f 39/37/14 40/38/14 41/39/15
f 42/40/16 41/39/15 40/38/14
f 42/40/16 43/28/17 41/39/15
f 43/28/17 42/40/16 44/26/18
f 45/41/19 46/42/20 47/43/19
f 46/42/20 45/41/19 48/44/20
f 49/45/21 50/46/22 51/47/22
f 49/45/21 51/47/22 52/48/21
f 50/46/22 53/49/23 51/47/22
f 50/46/22 54/50/23 53/49/23
f 54/50/23 55/51/24 53/49/23
f 54/50/23 56/52/24 55/51/24
f 56/52/24 57/53/25 55/51/24
f 56/52/24 58/54/25 57/53/25
f 58/54/25 59/55/26 57/53/25
f 58/54/25 60/56/26 59/55/26
f 61/57/27 62/58/27 63/59/27
f 61/57/27 63/59/27 64/60/27
f 65/61/28 66/62/28 67/63/28
f 66/62/28 65/61/28 68/64/28
f 69/65/28 70/66/28 71/67/28
f 70/66/28 69/65/28 72/68/28
f 72/68/28 73/69/28 70/66/28
f 73/69/28 72/68/28 74/70/28
f 75/71/28 73/69/28 74/70/28
f 73/69/28 75/71/28 76/72/28
f 77/73/28 76/72/28 75/71/28
f 76/72/28 77/73/28 78/74/28
f 79/75/29 78/74/28 77/73/28
f 78/74/28 79/75/29 80/76/30
f 81/63/31 80/76/30 79/75/29
f 80/76/30 81/63/31 82/62/31
usemtl Meshpart2Mtl.001
f 83/77/32 84/78/32 85/79/33
f 85/79/33 84/78/32 86/80/33
f 85/79/33 86/80/33 87/81/4
f 87/81/4 86/80/33 88/82/4
f 88/82/4 89/83/34 87/81/4
f 89/83/34 88/82/4 90/84/6
f 89/83/34 90/84/6 91/85/35
f 91/85/35 90/84/6 92/86/35
f 91/85/35 92/86/35 93/87/36
f 93/87/36 92/86/35 94/88/36
f 95/89/37 96/90/33 97/91/32
f 96/90/33 95/89/37 98/92/33
f 96/90/33 98/92/33 99/93/4
f 99/93/4 98/92/33 100/94/4
f 99/93/4 100/94/4 101/95/6
f 101/95/6 100/94/4 102/96/6
f 101/95/6 102/96/6 103/97/35
f 103/97/35 102/96/6 104/98/35
f 103/97/35 104/98/35 105/99/36
f 105/99/36 104/98/35 106/100/36
f 107/101/32 108/102/37 109/103/33
f 109/103/33 108/102/37 110/104/33
f 109/103/33 110/104/33 111/105/4
f 111/105/4 110/104/33 112/106/4
f 111/105/4 112/106/4 113/107/6
f 113/107/6 112/106/4 114/108/6
f 113/107/6 114/108/6 115/109/35
f 115/109/35 114/108/6 116/110/35
f 115/109/35 116/110/35 117/111/36
f 117/111/36 116/110/35 118/112/36
f 119/113/38 120/114/38 121/115/39
f 121/115/39 120/114/38 122/116/38
f 123/117/38 124/118/38 125/119/39
f 125/119/39 124/118/38 126/120/38
f 127/121/11 128/122/40 129/123/11
f 129/123/11 128/122/40 130/124/11
f 131/125/14 132/126/14 133/127/14
f 132/126/14 131/125/14 134/128/14
f 135/129/14 134/128/14 131/125/14
f 134/128/14 135/129/14 136/130/14
f 137/131/14 136/130/14 135/129/14
f 136/130/14 137/131/14 138/132/14
f 139/133/14 138/132/14 137/131/14
f 137/131/14 140/134/14 139/133/14
f 141/135/14 139/133/14 140/134/14
f 140/134/14 142/136/14 141/135/14
f 143/137/14 144/138/14 145/139/14
f 144/138/14 143/137/14 146/140/14
f 147/141/14 146/140/14 143/137/14
f 146/140/14 147/141/14 148/142/14
f 149/143/14 148/142/14 147/141/14
f 148/142/14 149/143/14 150/144/14
f 151/145/14 150/144/14 149/143/14
f 149/143/14 152/146/14 151/145/14
f 153/147/14 151/145/14 152/146/14
f 152/146/14 154/148/14 153/147/14
f 155/149/14 156/150/14 157/151/14
f 156/150/14 155/149/14 158/152/14
f 159/153/14 158/152/14 155/149/14
f 158/152/14 159/153/14 160/154/14
f 161/155/14 160/154/14 159/153/14
f 160/154/14 161/155/14 162/156/14
f 163/157/14 162/156/14 161/155/14
f 161/155/14 164/158/14 163/157/14
f 165/159/14 163/157/14 164/158/14
f 164/158/14 166/160/14 165/159/14
f 167/161/41 168/162/41 169/163/42
f 169/163/42 168/162/41 170/164/42
f 167/161/41 171/165/23 168/162/41
f 172/166/23 171/165/23 167/161/41
f 172/166/23 173/167/24 171/165/23
f 174/168/24 173/167/24 172/166/23
f 174/168/24 175/169/43 173/167/24
f 176/170/43 175/169/43 174/168/24
f 176/170/43 177/171/44 175/169/43
f 178/172/45 177/171/44 176/170/43
f 179/173/41 180/174/41 181/175/42
f 181/175/42 180/174/41 182/176/42
f 179/173/41 183/177/23 180/174/41
f 184/178/23 183/177/23 179/173/41
f 184/178/23 185/179/24 183/177/23
f 186/180/46 185/179/24 184/178/23
f 186/180/46 187/181/43 185/179/24
f 188/182/43 187/181/43 186/180/46
f 188/182/43 189/183/45 187/181/43
f 190/184/45 189/183/45 188/182/43
f 191/185/41 192/186/41 193/187/42
f 193/187/42 192/186/41 194/188/42
f 191/185/41 195/189/23 192/186/41
f 196/190/23 195/189/23 191/185/41
f 196/190/23 197/191/46 195/189/23
f 198/192/24 197/191/46 196/190/23
f 198/192/24 199/193/43 197/191/46
f 200/194/43 199/193/43 198/192/24
f 200/194/43 201/195/44 199/193/43
f 202/196/44 201/195/44 200/194/43
f 203/197/47 204/198/47 205/199/47
f 205/199/47 204/198/47 206/200/47
f 207/201/47 208/202/47 209/203/48
f 209/203/48 208/202/47 210/204/47
f 211/205/47 212/206/47 213/207/47
f 213/207/47 212/206/47 214/208/47
f 215/209/28 216/210/28 217/211/28
f 216/210/28 215/209/28 218/212/28
f 218/212/28 219/213/28 216/210/28
f 219/213/28 218/212/28 220/214/28
f 220/214/28 221/215/28 219/213/28
f 221/215/28 220/214/28 222/216/28
f 223/217/28 221/215/28 222/216/28
f 221/215/28 223/217/28 224/218/28
f 225/219/28 224/218/28 223/217/28
f 224/218/28 225/219/28 226/220/28
f 227/221/28 228/222/28 229/223/28
f 228/222/28 227/221/28 230/224/28
f 230/224/28 231/225/28 228/222/28
f 231/225/28 230/224/28 232/226/28
f 232/226/28 233/227/28 231/225/28
f 233/227/28 232/226/28 234/228/28
f 235/229/28 233/227/28 234/228/28
f 233/227/28 235/229/28 236/230/28
f 237/231/28 236/230/28 235/229/28
f 236/230/28 237/231/28 238/232/28
f 239/233/28 240/234/28 241/235/28
f 240/234/28 239/233/28 242/236/28
f 242/236/28 243/237/28 240/234/28
f 243/237/28 242/236/28 244/238/28
f 244/238/28 245/239/28 243/237/28
f 245/239/28 244/238/28 246/240/28
f 247/241/28 245/239/28 246/240/28
f 245/239/28 247/241/28 248/242/28
f 249/243/28 248/242/28 247/241/28
f 248/242/28 249/243/28 250/244/28
